<svg width="24" height="24" viewBox="0 0 24 24" fill="none" xmlns="http://www.w3.org/2000/svg">
<g clip-path="url(#clip0_474_2024)">
<path d="M20.3178 4.36032C18.7615 3.64612 17.1194 3.13638 15.4323 2.84382C15.417 2.84124 15.4013 2.84346 15.3873 2.85018C15.3733 2.85689 15.3618 2.86777 15.3543 2.88132C15.1428 3.25632 14.9088 3.74682 14.7453 4.13082C12.9267 3.85483 11.0768 3.85483 9.25825 4.13082C9.07587 3.70305 8.86954 3.28588 8.64025 2.88132C8.63256 2.86792 8.62099 2.85717 8.60707 2.85047C8.59314 2.84378 8.57752 2.84146 8.56225 2.84382C6.87475 3.13482 5.23225 3.64482 3.67675 4.36032C3.66344 4.3654 3.65231 4.37494 3.64525 4.38732C0.534253 9.03582 -0.319247 13.5703 0.0992533 18.0478C0.100753 18.0688 0.114253 18.0898 0.130753 18.1033C1.94234 19.4452 3.96864 20.4698 6.12325 21.1333C6.13847 21.1381 6.15481 21.1379 6.16992 21.1328C6.18502 21.1277 6.1981 21.1179 6.20725 21.1048C6.66925 20.4748 7.08025 19.8103 7.43425 19.1113C7.44163 19.0969 7.44416 19.0805 7.44145 19.0646C7.43875 19.0486 7.43096 19.034 7.41925 19.0228C7.4115 19.0155 7.4023 19.0099 7.39225 19.0063C6.74599 18.7579 6.1201 18.4595 5.52025 18.1138C5.5035 18.1043 5.49104 18.0887 5.48545 18.0703C5.47987 18.0519 5.48159 18.032 5.49025 18.0148C5.49536 18.0036 5.50307 17.9939 5.51275 17.9863C5.63875 17.8918 5.76475 17.7928 5.88475 17.6938C5.89535 17.6853 5.90807 17.6798 5.92155 17.678C5.93502 17.6761 5.94875 17.678 5.96125 17.6833C9.88975 19.4773 14.1423 19.4773 18.0228 17.6833C18.0357 17.6777 18.05 17.6757 18.064 17.6776C18.078 17.6794 18.0912 17.685 18.1023 17.6938C18.2223 17.7928 18.3483 17.8918 18.4743 17.9863C18.4845 17.9938 18.4927 18.0037 18.4981 18.0151C18.5036 18.0265 18.5061 18.039 18.5055 18.0517C18.5049 18.0643 18.5012 18.0766 18.4947 18.0874C18.4882 18.0983 18.4791 18.1073 18.4683 18.1138C17.8698 18.4627 17.2431 18.7608 16.5948 19.0048C16.5844 19.0086 16.575 19.0145 16.5672 19.0223C16.5595 19.0301 16.5535 19.0395 16.5498 19.0498C16.5463 19.0598 16.5449 19.0705 16.5457 19.081C16.5464 19.0916 16.5494 19.1019 16.5543 19.1113C16.9143 19.8088 17.3268 20.4748 17.7798 21.1048C17.7889 21.1179 17.802 21.1277 17.8171 21.1328C17.8322 21.1379 17.8485 21.1381 17.8638 21.1333C20.022 20.4719 22.0516 19.4472 23.8653 18.1033C23.8743 18.097 23.8819 18.0888 23.8873 18.0792C23.8928 18.0696 23.896 18.0588 23.8968 18.0478C24.3978 12.8713 23.0583 8.37432 20.3478 4.38882C20.345 4.38223 20.3409 4.3763 20.3358 4.37139C20.3306 4.36648 20.3245 4.36271 20.3178 4.36032ZM8.02075 15.3208C6.83725 15.3208 5.86375 14.2348 5.86375 12.9028C5.86375 11.5693 6.81925 10.4833 8.02075 10.4833C9.23125 10.4833 10.1958 11.5783 10.1778 12.9028C10.1778 14.2348 9.22225 15.3208 8.02075 15.3208ZM15.9948 15.3208C14.8128 15.3208 13.8378 14.2348 13.8378 12.9028C13.8378 11.5693 14.7933 10.4833 15.9948 10.4833C17.2053 10.4833 18.1713 11.5783 18.1518 12.9028C18.1518 14.2348 17.2053 15.3208 15.9948 15.3208Z" fill="#4A4A4A"/>
</g>
<defs>
<clipPath id="clip0_474_2024">
<rect width="24" height="24" fill="white"/>
</clipPath>
</defs>
</svg>
