<svg width="319" height="358" viewBox="0 0 319 358" fill="none" xmlns="http://www.w3.org/2000/svg">
<path d="M283.994 238.919L291.774 251.235M283.994 238.919L269.557 240.875M283.994 238.919L270.682 267.464M291.774 251.235L285.118 265.508M291.774 251.235L262.902 255.147M285.118 265.508L270.682 267.464M285.118 265.508L269.557 240.875M270.682 267.464L262.902 255.147M262.902 255.147L269.557 240.875" stroke="#CCDAFE"/>
<path d="M282.282 242.589L288.062 251.738M282.282 242.589L271.558 244.042M282.282 242.589L272.394 263.794M288.062 251.738L283.118 262.341M288.062 251.738L266.614 254.644M283.118 262.341L272.394 263.794M283.118 262.341L271.558 244.042M272.394 263.794L266.614 254.644M266.614 254.644L271.558 244.042" stroke="#CCDAFE"/>
<path d="M280.571 246.259L284.35 252.241M280.571 246.259L273.559 247.209M280.571 246.259L274.105 260.124M284.35 252.241L281.117 259.173M284.35 252.241L270.326 254.141M281.117 259.173L274.105 260.124M281.117 259.173L273.559 247.209M274.105 260.124L270.326 254.141M270.326 254.141L273.559 247.209" stroke="#CCDAFE"/>
<path d="M278.859 249.929L280.638 252.744M278.859 249.929L275.56 250.376M278.859 249.929L275.817 256.454M280.638 252.744L279.116 256.006M280.638 252.744L274.038 253.638M279.116 256.006L275.817 256.454M279.116 256.006L275.56 250.376M275.817 256.454L274.038 253.638M274.038 253.638L275.56 250.376" stroke="#CCDAFE"/>
<path d="M273.234 246.685L281.071 245.188L288.287 251.677L283.328 262.312L273.393 261.653L268.238 254.408L273.234 246.685Z" fill="#3673E8" fill-opacity="0.2"/>
<path d="M281.071 245.188L281.405 244.816C281.289 244.712 281.13 244.668 280.977 244.697L281.071 245.188ZM273.234 246.685L273.14 246.193L272.93 246.234L272.814 246.413L273.234 246.685ZM268.238 254.408L267.818 254.137C267.707 254.309 267.712 254.531 267.83 254.698L268.238 254.408ZM283.328 262.312L283.295 262.81C283.501 262.824 283.694 262.71 283.781 262.523L283.328 262.312ZM288.287 251.677L288.74 251.889L288.897 251.553L288.622 251.305L288.287 251.677ZM273.393 261.653L272.985 261.943L273.123 262.136L273.359 262.152L273.393 261.653ZM280.977 244.697L273.14 246.193L273.328 247.176L281.164 245.679L280.977 244.697ZM272.814 246.413L267.818 254.137L268.658 254.68L273.654 246.956L272.814 246.413ZM283.781 262.523L288.74 251.889L287.834 251.466L282.875 262.1L283.781 262.523ZM288.622 251.305L281.405 244.816L280.736 245.56L287.953 252.049L288.622 251.305ZM267.83 254.698L272.985 261.943L273.8 261.363L268.645 254.118L267.83 254.698ZM273.359 262.152L283.295 262.81L283.361 261.813L273.426 261.154L273.359 262.152Z" fill="#3673E8"/>
<path d="M31.4876 235.406L49.0668 240.352L66.646 245.297M31.4876 235.406L21.4122 250.637L11.3368 265.868M31.4876 235.406L42.3472 264.606M66.646 245.297L67.4351 263.585L68.2242 281.872M66.646 245.297L42.3472 264.606M68.2242 281.872L51.1327 288.228L34.0412 294.585M68.2242 281.872L42.3472 264.606M34.0412 294.585L22.689 280.226L11.3368 265.868M34.0412 294.585L42.3472 264.606M11.3368 265.868L26.842 265.237L42.3472 264.606" stroke="#CCDAFE"/>
<path d="M34.2798 242.915L47.3386 246.589L60.3974 250.263M34.2798 242.915L26.7952 254.229L19.3105 265.543M34.2798 242.915L42.3468 264.606M60.3974 250.263L60.9836 263.847L61.5698 277.432M60.3974 250.263L42.3468 264.606M61.5698 277.432L48.8732 282.154L36.1767 286.876M61.5698 277.432L42.3468 264.606M36.1767 286.876L27.7436 276.21L19.3105 265.543M36.1767 286.876L42.3468 264.606M19.3105 265.543L30.8287 265.074L42.3468 264.606" stroke="#CCDAFE"/>
<path d="M37.0724 250.423L45.6109 252.825L54.1493 255.227L54.5326 264.11L54.9159 272.992L46.6143 276.079L38.3127 279.167L32.7988 272.193L27.2848 265.219L32.1786 257.821L37.0724 250.423Z" fill="#FAFAFA"/>
<path d="M37.0724 250.423L45.6109 252.825L54.1493 255.227M37.0724 250.423L32.1786 257.821L27.2848 265.219M37.0724 250.423L42.347 264.606M54.1493 255.227L54.5326 264.11L54.9159 272.992M54.1493 255.227L42.347 264.606M54.9159 272.992L46.6143 276.079L38.3127 279.167M54.9159 272.992L42.347 264.606M38.3127 279.167L32.7988 272.193L27.2848 265.219M38.3127 279.167L42.347 264.606M27.2848 265.219L34.8159 264.912L42.347 264.606" stroke="black" stroke-opacity="0.06"/>
<path d="M39.8645 257.931L43.8826 259.062L47.9007 260.192L48.0811 264.372L48.2614 268.552L44.3548 270.005L40.4482 271.458L37.8534 268.176L35.2586 264.894L37.5616 261.413L39.8645 257.931Z" fill="#F2F2F2"/>
<path d="M39.8645 257.931L43.8826 259.062L47.9007 260.192M39.8645 257.931L37.5616 261.413L35.2586 264.894M39.8645 257.931L42.3467 264.605M47.9007 260.192L48.0811 264.372L48.2614 268.552M47.9007 260.192L42.3467 264.605M48.2614 268.552L44.3548 270.005L40.4482 271.458M48.2614 268.552L42.3467 264.605M40.4482 271.458L37.8534 268.176L35.2586 264.894M40.4482 271.458L42.3467 264.605M35.2586 264.894L38.8026 264.75L42.3467 264.605" stroke="black" stroke-opacity="0.06"/>
<path d="M20.9115 265.455L33.5428 240.933L58.5825 251.682L56.3598 273.995L40.7301 270.43L20.9115 265.455Z" fill="#1DE4BC" fill-opacity="0.2"/>
<path d="M33.5428 240.933L33.7401 240.474C33.4988 240.37 33.2186 240.471 33.0983 240.704L33.5428 240.933ZM20.9115 265.455L20.467 265.226C20.3971 265.362 20.393 265.522 20.4559 265.661C20.5188 265.8 20.6417 265.903 20.7898 265.94L20.9115 265.455ZM58.5825 251.682L59.0801 251.732C59.1017 251.515 58.9801 251.309 58.7797 251.223L58.5825 251.682ZM56.3598 273.995L56.2486 274.482L56.8012 274.608L56.8574 274.044L56.3598 273.995ZM40.7301 270.43L40.6084 270.915L40.6189 270.917L40.7301 270.43ZM33.0983 240.704L20.467 265.226L21.356 265.684L33.9873 241.162L33.0983 240.704ZM58.7797 251.223L33.7401 240.474L33.3456 241.393L58.3853 252.142L58.7797 251.223ZM56.8574 274.044L59.0801 251.732L58.085 251.633L55.8623 273.945L56.8574 274.044ZM20.7898 265.94L40.6084 270.915L40.8519 269.945L21.0332 264.97L20.7898 265.94ZM40.6189 270.917L56.2486 274.482L56.471 273.507L40.8413 269.942L40.6189 270.917Z" fill="#1DE4BC"/>
<path d="M52.7307 271.546L38.8662 277.177L25.116 265.316L36.6461 249.276L57.5958 252.524L52.7307 271.546Z" fill="#3673E8" fill-opacity="0.2"/>
<path d="M38.8662 277.177L38.5396 277.556C38.6817 277.679 38.8805 277.711 39.0543 277.641L38.8662 277.177ZM52.7307 271.546L52.9189 272.01C53.0659 271.95 53.1758 271.824 53.2151 271.67L52.7307 271.546ZM36.6461 249.276L36.7227 248.782C36.5366 248.753 36.35 248.831 36.2401 248.984L36.6461 249.276ZM25.116 265.316L24.71 265.024L24.4429 265.396L24.7894 265.695L25.116 265.316ZM57.5958 252.524L58.0802 252.648L58.2167 252.115L57.6724 252.03L57.5958 252.524ZM39.0543 277.641L52.9189 272.01L52.5426 271.083L38.678 276.714L39.0543 277.641ZM36.2401 248.984L24.71 265.024L25.522 265.608L37.0521 249.568L36.2401 248.984ZM24.7894 265.695L38.5396 277.556L39.1928 276.799L25.4426 264.938L24.7894 265.695ZM53.2151 271.67L58.0802 252.648L57.1114 252.4L52.2463 271.422L53.2151 271.67ZM57.6724 252.03L36.7227 248.782L36.5695 249.77L57.5192 253.018L57.6724 252.03Z" fill="#3673E8"/>
<path d="M32.9268 265.023L35.8312 247.086L60.5958 250.103L59.8082 276.274L37.3142 282.859L32.9268 265.023Z" fill="#61B8FF" fill-opacity="0.2"/>
<path d="M35.8312 247.086L35.8917 246.59C35.6252 246.557 35.3806 246.741 35.3376 247.006L35.8312 247.086ZM32.9268 265.023L32.4332 264.943C32.4224 265.009 32.4252 265.077 32.4412 265.142L32.9268 265.023ZM60.5958 250.103L61.0956 250.118C61.1034 249.859 60.9129 249.638 60.6563 249.606L60.5958 250.103ZM59.8082 276.274L59.9486 276.754L60.297 276.652L60.3079 276.289L59.8082 276.274ZM37.3142 282.859L36.8287 282.978L36.9534 283.485L37.4547 283.339L37.3142 282.859ZM35.3376 247.006L32.4332 264.943L33.4203 265.103L36.3248 247.166L35.3376 247.006ZM60.6563 249.606L35.8917 246.59L35.7708 247.582L60.5354 250.599L60.6563 249.606ZM60.3079 276.289L61.0956 250.118L60.0961 250.088L59.3084 276.259L60.3079 276.289ZM32.4412 265.142L36.8287 282.978L37.7997 282.739L33.4123 264.903L32.4412 265.142ZM37.4547 283.339L59.9486 276.754L59.6677 275.794L37.1737 282.379L37.4547 283.339Z" fill="#61B8FF"/>
<path d="M198.794 316.257L192.654 351.499L186.513 386.74M198.794 316.257L165.154 328.423L131.514 340.588M198.794 316.257L172.274 347.862M186.513 386.74L159.014 363.664L131.514 340.588M186.513 386.74L172.274 347.862M131.514 340.588L172.274 347.862" stroke="#CCDAFE"/>
<path d="M191.974 324.384L187.413 350.563L182.851 376.742M191.974 324.384L166.985 333.421L141.995 342.458M191.974 324.384L172.274 347.862M182.851 376.742L162.423 359.6L141.995 342.458M182.851 376.742L172.274 347.862M141.995 342.458L172.274 347.862" stroke="#CCDAFE"/>
<path d="M185.155 332.511L182.173 349.628L179.19 366.745M185.155 332.511L168.816 338.42L152.476 344.329M185.155 332.511L172.274 347.862M179.19 366.745L165.833 355.537L152.476 344.329M179.19 366.745L172.274 347.862M152.476 344.329L172.274 347.862" stroke="#CCDAFE"/>
<path d="M178.335 340.638L176.932 348.693L175.528 356.748M178.335 340.638L170.646 343.418L162.957 346.199M178.335 340.638L172.274 347.862M175.528 356.748L169.243 351.473L162.957 346.199M175.528 356.748L172.274 347.862M162.957 346.199L172.274 347.862" stroke="#CCDAFE"/>
<path d="M151.392 344.188L185.345 332.285L176.725 360.06L151.392 344.188Z" fill="#18ABDD" fill-opacity="0.2" stroke="#18ABDD" stroke-linejoin="round"/>
<path d="M162.892 346.145L178.525 340.412L178.95 366.16L162.892 346.145Z" fill="#176CA1" fill-opacity="0.2" stroke="#176CA1" stroke-linejoin="round"/>
<path d="M255.858 27.8843L299.111 28.1371M255.858 27.8843L237.708 67.1458M255.858 27.8843L306.064 106.913M299.111 28.1371L324.214 67.6514M299.111 28.1371L262.811 106.66M324.214 67.6514L306.064 106.913M324.214 67.6514L237.708 67.1458M306.064 106.913L262.811 106.66M262.811 106.66L237.708 67.1458" stroke="#CCDAFE"/>
<path d="M262.313 38.0452L294.443 38.233M262.313 38.0452L248.83 67.2109M262.313 38.0452L299.609 96.7522M294.443 38.233L313.091 67.5865M294.443 38.233L267.478 96.5644M313.091 67.5865L299.609 96.7522M313.091 67.5865L248.83 67.2109M299.609 96.7522L267.478 96.5644M267.478 96.5644L248.83 67.2109" stroke="#CCDAFE"/>
<path d="M268.768 48.2059L289.777 48.3287M268.768 48.2059L259.952 67.2758M268.768 48.2059L293.154 86.5912M289.777 48.3287L301.97 67.5213M289.777 48.3287L272.145 86.4684M301.97 67.5213L293.154 86.5912M301.97 67.5213L259.952 67.2758M293.154 86.5912L272.145 86.4684M272.145 86.4684L259.952 67.2758" stroke="#CCDAFE"/>
<path d="M275.223 58.3668L285.109 58.4246M275.223 58.3668L271.074 67.3409M275.223 58.3668L286.698 76.4305M285.109 58.4246L290.847 67.4564M285.109 58.4246L276.812 76.3727M290.847 67.4564L286.698 76.4305M290.847 67.4564L271.074 67.3409M286.698 76.4305L276.812 76.3727M276.812 76.3727L271.074 67.3409" stroke="#CCDAFE"/>
<path d="M258.121 67.2514L266.886 45.2426L288.422 51.1703L302.684 67.4644L295.844 90.8251L269.479 92.1241L258.121 67.2514Z" fill="#3673E8" fill-opacity="0.2"/>
<path d="M266.886 45.2426L267.018 44.7605C266.773 44.6929 266.515 44.8209 266.421 45.0576L266.886 45.2426ZM258.121 67.2514L257.656 67.0664L257.577 67.2648L257.666 67.4591L258.121 67.2514ZM269.479 92.1241L269.024 92.3318C269.11 92.518 269.299 92.6335 269.504 92.6235L269.479 92.1241ZM302.684 67.4644L303.163 67.6049C303.211 67.4408 303.172 67.2637 303.06 67.1351L302.684 67.4644ZM288.422 51.1703L288.799 50.8409L288.7 50.728L288.555 50.6882L288.422 51.1703ZM295.844 90.8251L295.868 91.3245L296.224 91.307L296.324 90.9656L295.844 90.8251ZM266.421 45.0576L257.656 67.0664L258.585 67.4364L267.35 45.4276L266.421 45.0576ZM257.666 67.4591L269.024 92.3318L269.934 91.9164L258.576 67.0437L257.666 67.4591ZM303.06 67.1351L288.799 50.8409L288.046 51.4996L302.307 67.7937L303.06 67.1351ZM288.555 50.6882L267.018 44.7605L266.753 45.7247L288.29 51.6523L288.555 50.6882ZM269.504 92.6235L295.868 91.3245L295.819 90.3257L269.455 91.6247L269.504 92.6235ZM296.324 90.9656L303.163 67.6049L302.204 67.3239L295.364 90.6846L296.324 90.9656Z" fill="#3673E8"/>
<path d="M263.316 67.3179L265.182 42.5613L294.427 38.2439L311.83 67.5959L285.892 75.1606L267.495 96.5538L263.316 67.3179Z" fill="#61B8FF" fill-opacity="0.2"/>
<path d="M265.182 42.5613L265.109 42.0667C264.878 42.1008 264.701 42.2907 264.683 42.5238L265.182 42.5613ZM263.316 67.3179L262.818 67.2803C262.815 67.3165 262.816 67.3528 262.821 67.3887L263.316 67.3179ZM294.427 38.2439L294.857 37.9889C294.754 37.8143 294.555 37.7196 294.354 37.7493L294.427 38.2439ZM311.83 67.5959L311.97 68.0759L312.589 67.8955L312.26 67.3409L311.83 67.5959ZM267.495 96.5538L267 96.6246L267.156 97.715L267.874 96.8798L267.495 96.5538ZM285.892 75.1606L285.752 74.6806L285.61 74.7221L285.513 74.8346L285.892 75.1606ZM264.683 42.5238L262.818 67.2803L263.815 67.3555L265.681 42.5989L264.683 42.5238ZM294.354 37.7493L265.109 42.0667L265.255 43.056L294.5 38.7386L294.354 37.7493ZM312.26 67.3409L294.857 37.9889L293.997 38.4989L311.4 67.8509L312.26 67.3409ZM262.821 67.3887L267 96.6246L267.99 96.4831L263.811 67.2472L262.821 67.3887ZM267.874 96.8798L286.271 75.4866L285.513 74.8346L267.116 96.2278L267.874 96.8798ZM286.032 75.6406L311.97 68.0759L311.69 67.1159L285.752 74.6806L286.032 75.6406Z" fill="#61B8FF"/>
</svg>
