<svg width="431" height="363" viewBox="0 0 431 363" fill="none" xmlns="http://www.w3.org/2000/svg">
<path d="M5.89507 22.0498L26.7071 24.1313L47.5192 26.2129M5.89507 22.0498L-2.43989 41.2332L-10.7748 60.4166M5.89507 22.0498L23.9521 52.8247M47.5192 26.2129L52.0468 46.6828L56.5744 67.1527M47.5192 26.2129L23.9521 52.8247M56.5744 67.1527L38.5606 77.7222L20.5467 88.2917M56.5744 67.1527L23.9521 52.8247M20.5467 88.2917L4.88593 74.3542L-10.7748 60.4166M20.5467 88.2917L23.9521 52.8247M-10.7748 60.4166L6.58863 56.6207L23.9521 52.8247" stroke="#CCDAFE"/>
<path d="M10.5383 29.9633L25.9987 31.5096L41.4591 33.0559M10.5383 29.9633L4.34662 44.2138L-1.84506 58.4643M10.5383 29.9633L23.9521 52.8247M41.4591 33.0559L44.8225 48.2621L48.1858 63.4683M41.4591 33.0559L23.9521 52.8247M48.1858 63.4683L34.8041 71.3199L21.4224 79.1716M48.1858 63.4683L23.9521 52.8247M21.4224 79.1716L9.78866 68.818L-1.84506 58.4643M21.4224 79.1716L23.9521 52.8247M-1.84506 58.4643L11.0535 55.6445L23.9521 52.8247" stroke="#CCDAFE"/>
<path d="M15.1815 37.877L25.2903 38.888L35.399 39.8991L37.5981 49.8416L39.7972 59.7841L31.0476 64.9179L22.298 70.0517L14.6914 63.282L7.08472 56.5123L11.1331 47.1946L15.1815 37.877Z" fill="#FAFAFA"/>
<path d="M15.1815 37.877L25.2903 38.888L35.399 39.8991M15.1815 37.877L11.1331 47.1946L7.08472 56.5123M15.1815 37.877L23.9521 52.8248M35.399 39.8991L37.5981 49.8416L39.7972 59.7841M35.399 39.8991L23.9521 52.8248M39.7972 59.7841L31.0476 64.9179L22.298 70.0517M39.7972 59.7841L23.9521 52.8248M22.298 70.0517L14.6914 63.282L7.08472 56.5123M22.298 70.0517L23.9521 52.8248M7.08472 56.5123L15.5184 54.6686L23.9521 52.8248" stroke="black" stroke-opacity="0.06"/>
<path d="M19.8248 45.7905L24.5818 46.2663L29.3389 46.742L30.3737 51.4209L31.4086 56.0997L27.2912 58.5156L23.1737 60.9315L19.5941 57.7458L16.0145 54.56L17.9196 50.1753L19.8248 45.7905Z" fill="#F2F2F2"/>
<path d="M19.8248 45.7905L24.5818 46.2663L29.3389 46.742M19.8248 45.7905L17.9196 50.1753L16.0145 54.56M19.8248 45.7905L23.9521 52.8248M29.3389 46.742L30.3737 51.4209L31.4086 56.0997M29.3389 46.742L23.9521 52.8248M31.4086 56.0997L27.2912 58.5156L23.1737 60.9315M31.4086 56.0997L23.9521 52.8248M23.1737 60.9315L19.5941 57.7458L16.0145 54.56M23.1737 60.9315L23.9521 52.8248M16.0145 54.56L19.9833 53.6924L23.9521 52.8248" stroke="black" stroke-opacity="0.06"/>
<path d="M-0.0569285 58.047L9.31279 27.8752L39.6942 35.0187L41.6255 60.6282L23.2869 59.7161L-0.0569285 58.047Z" fill="#1DE4BC" fill-opacity="0.2"/>
<path d="M9.31279 27.8752L9.42724 27.3885C9.17167 27.3284 8.91315 27.4762 8.83529 27.7269L9.31279 27.8752ZM-0.0569285 58.047L-0.534433 57.8987C-0.579699 58.0444 -0.555909 58.2029 -0.469834 58.3289C-0.383759 58.455 -0.244828 58.5348 -0.0925877 58.5457L-0.0569285 58.047ZM39.6942 35.0187L40.1928 34.9811C40.1764 34.7637 40.021 34.5819 39.8087 34.532L39.6942 35.0187ZM41.6255 60.6282L41.6006 61.1276L42.1667 61.1558L42.124 60.5906L41.6255 60.6282ZM23.2869 59.7161L23.2512 60.2149L23.2621 60.2154L23.2869 59.7161ZM8.83529 27.7269L-0.534433 57.8987L0.420576 58.1953L9.7903 28.0235L8.83529 27.7269ZM39.8087 34.532L9.42724 27.3885L9.19835 28.3619L39.5798 35.5054L39.8087 34.532ZM42.124 60.5906L40.1928 34.9811L39.1957 35.0563L41.1269 60.6658L42.124 60.5906ZM-0.0925877 58.5457L23.2513 60.2148L23.3226 59.2173L-0.0212694 57.5482L-0.0925877 58.5457ZM23.2621 60.2154L41.6006 61.1276L41.6503 60.1288L23.3118 59.2167L23.2621 60.2154Z" fill="#1DE4BC"/>
<path d="M37.0445 58.588L22.5262 67.6975L4.6574 57.0538L14.4721 36.6679L38.7483 36.1646L37.0445 58.588Z" fill="#3673E8" fill-opacity="0.2"/>
<path d="M22.5262 67.6975L22.2703 68.1271C22.4316 68.2231 22.633 68.2208 22.792 68.121L22.5262 67.6975ZM37.0445 58.588L37.3102 59.0115C37.4446 58.9272 37.531 58.7841 37.5431 58.6259L37.0445 58.588ZM14.4721 36.6679L14.4617 36.168C14.2734 36.1719 14.1033 36.2813 14.0216 36.451L14.4721 36.6679ZM4.6574 57.0538L4.20689 56.8369L4.0084 57.2492L4.40153 57.4833L4.6574 57.0538ZM38.7483 36.1646L39.2469 36.2025L39.2886 35.6533L38.738 35.6647L38.7483 36.1646ZM22.792 68.121L37.3102 59.0115L36.7787 58.1645L22.2605 67.274L22.792 68.121ZM14.0216 36.451L4.20689 56.8369L5.10791 57.2707L14.9226 36.8848L14.0216 36.451ZM4.40153 57.4833L22.2703 68.1271L22.7821 67.2679L4.91328 56.6242L4.40153 57.4833ZM37.5431 58.6259L39.2469 36.2025L38.2498 36.1267L36.5459 58.5501L37.5431 58.6259ZM38.738 35.6647L14.4617 36.168L14.4824 37.1678L38.7587 36.6645L38.738 35.6647Z" fill="#3673E8"/>
<path d="M13.4095 55.1691L13.1177 34.3599L41.6508 32.8364L45.9682 62.5126L21.9061 74.4146L13.4095 55.1691Z" fill="#61B8FF" fill-opacity="0.2"/>
<path d="M13.1177 34.3599L13.0911 33.8606C12.8229 33.8749 12.614 34.0984 12.6178 34.3669L13.1177 34.3599ZM13.4095 55.1691L12.9095 55.1761C12.9105 55.2433 12.9249 55.3096 12.9521 55.371L13.4095 55.1691ZM41.6508 32.8364L42.1456 32.7644C42.1084 32.5086 41.8823 32.3233 41.6242 32.3371L41.6508 32.8364ZM45.9682 62.5126L46.1898 62.9608L46.5152 62.7999L46.463 62.4406L45.9682 62.5126ZM21.9061 74.4146L21.4487 74.6166L21.6597 75.0944L22.1278 74.8628L21.9061 74.4146ZM12.6178 34.3669L12.9095 55.1761L13.9094 55.1621L13.6177 34.3529L12.6178 34.3669ZM41.6242 32.3371L13.0911 33.8606L13.1444 34.8591L41.6775 33.3357L41.6242 32.3371ZM46.463 62.4406L42.1456 32.7644L41.156 32.9084L45.4734 62.5846L46.463 62.4406ZM12.9521 55.371L21.4487 74.6166L22.3635 74.2127L13.8669 54.9672L12.9521 55.371ZM22.1278 74.8628L46.1898 62.9608L45.7465 62.0645L21.6844 73.9665L22.1278 74.8628Z" fill="#61B8FF"/>
<path d="M91.2119 262.338L54.3823 283.702L17.5527 305.066M91.2119 262.338L54.3823 240.974L17.5527 219.61M91.2119 262.338L42.1058 262.338M17.5527 305.066L17.5527 262.338L17.5527 219.61M17.5527 305.066L42.1058 262.338M17.5527 219.61L42.1058 262.338" stroke="#CCDAFE"/>
<path d="M78.5845 262.338L51.2253 278.209L23.8662 294.079M78.5845 262.338L51.2253 246.468L23.8662 230.597M78.5845 262.338L42.1056 262.338M23.8662 294.079L23.8662 262.338L23.8662 230.597M23.8662 294.079L42.1056 262.338M23.8662 230.597L42.1056 262.338" stroke="#CCDAFE"/>
<path d="M65.9575 262.338L48.0689 272.715L30.1802 283.092M65.9575 262.338L48.0689 251.961L30.1802 241.584M65.9575 262.338L42.106 262.338M30.1802 283.092L30.1802 262.338L30.1802 241.584M30.1802 283.092L42.106 262.338M30.1802 241.584L42.106 262.338" stroke="#CCDAFE"/>
<path d="M53.3301 262.338L44.9119 267.221L36.4937 272.105M53.3301 262.338L44.9119 257.455L36.4937 252.572M53.3301 262.338L42.1058 262.338M36.4937 272.105L36.4937 262.338L36.4937 252.572M36.4937 272.105L42.1058 262.338M36.4937 252.572L42.1058 262.338" stroke="#CCDAFE"/>
<path d="M29.4785 240.488L66.3081 262.338L34.3891 275.73L29.4785 240.488Z" fill="#18ABDD" fill-opacity="0.2" stroke="#18ABDD" stroke-linejoin="round"/>
<path d="M36.4935 252.47L53.6807 262.338L30.5306 282.426L36.4935 252.47Z" fill="#176CA1" fill-opacity="0.2" stroke="#176CA1" stroke-linejoin="round"/>
<path d="M120.035 153.193L116.964 170.819L113.892 188.445M120.035 153.193L103.209 159.277L86.3839 165.362M120.035 153.193L106.77 169M113.892 188.445L100.138 176.904L86.3839 165.362M113.892 188.445L106.77 169M86.3839 165.362L106.77 169" stroke="#CCDAFE" stroke-width="0.5"/>
<path d="M116.624 157.257L114.342 170.351L112.061 183.445M116.624 157.257L104.125 161.777L91.6257 166.298M116.624 157.257L106.77 169M112.061 183.445L101.843 174.871L91.6257 166.298M112.061 183.445L106.77 169M91.6257 166.298L106.77 169" stroke="#CCDAFE" stroke-width="0.5"/>
<path d="M113.213 161.322L111.722 169.883L110.23 178.445M113.213 161.322L105.041 164.277L96.8685 167.233M113.213 161.322L106.771 169M110.23 178.445L103.549 172.839L96.8685 167.233M110.23 178.445L106.771 169M96.8685 167.233L106.771 169" stroke="#CCDAFE"/>
<path d="M109.802 165.387L109.1 169.416L108.398 173.445M109.802 165.387L105.956 166.778L102.11 168.169M109.802 165.387L106.77 169M108.398 173.445L105.254 170.807L102.11 168.169M108.398 173.445L106.77 169M102.11 168.169L106.77 169" stroke="#CCDAFE"/>
<path d="M96.326 167.163L113.308 161.209L108.997 175.101L96.326 167.163Z" fill="#9FE7FF" fill-opacity="0.2" stroke="#9FE7FF" stroke-width="0.5" stroke-linejoin="round"/>
<path d="M102.078 168.141L109.897 165.274L110.11 178.152L102.078 168.141Z" fill="#1CD4D4" fill-opacity="0.2" stroke="#1CD4D4" stroke-width="0.5" stroke-linejoin="round"/>
<path d="M338.09 324.564L338.427 281.988L338.765 239.412M338.09 324.564L375.216 303.719L412.342 282.875M338.09 324.564L363.066 282.283M338.765 239.412L375.554 261.143L412.342 282.875M338.765 239.412L363.066 282.283M412.342 282.875L363.066 282.283" stroke="#CCDAFE"/>
<path d="M344.512 313.692L344.763 282.064L345.014 250.436M344.512 313.692L372.092 298.207L399.671 282.723M344.512 313.692L363.066 282.283M345.014 250.436L372.342 266.579L399.671 282.723M345.014 250.436L363.066 282.283M399.671 282.723L363.066 282.283" stroke="#CCDAFE"/>
<path d="M350.935 302.82L351.099 282.14L351.263 261.46M350.935 302.82L368.968 292.695L387 282.571M350.935 302.82L363.066 282.283M351.263 261.46L369.131 272.015L387 282.571M351.263 261.46L363.066 282.283M387 282.571L363.066 282.283" stroke="#CCDAFE"/>
<path d="M357.357 291.947L357.434 282.216L357.511 272.484M357.357 291.947L365.843 287.183L374.329 282.418M357.357 291.947L363.066 282.283M357.511 272.484L365.92 277.451L374.329 282.418M357.511 272.484L363.066 282.283M374.329 282.418L363.066 282.283" stroke="#CCDAFE"/>
<path d="M388.3 282.524L350.756 303.122L355.46 268.828L388.3 282.524Z" fill="#18ABDD" fill-opacity="0.2" stroke="#18ABDD" stroke-linejoin="round"/>
<path d="M374.415 282.47L357.178 292.25L351.657 262.101L374.415 282.47Z" fill="#176CA1" fill-opacity="0.2" stroke="#176CA1" stroke-linejoin="round"/>
<path d="M207.769 339.226L214.573 370.389M207.769 339.226L176.606 332.422M207.769 339.226L159.052 387.943M214.573 370.389L190.215 394.747M214.573 370.389L152.248 356.78M190.215 394.747L159.052 387.943M190.215 394.747L176.606 332.422M159.052 387.943L152.248 356.78M152.248 356.78L176.606 332.422" stroke="#CCDAFE"/>
<path d="M201.505 345.49L206.56 368.639M201.505 345.49L178.356 340.435M201.505 345.49L165.316 381.679M206.56 368.639L188.465 386.734M206.56 368.639L160.261 358.53M188.465 386.734L165.316 381.679M188.465 386.734L178.356 340.435M165.316 381.679L160.261 358.53M160.261 358.53L178.356 340.435" stroke="#CCDAFE"/>
<path d="M195.242 351.753L198.547 366.889M195.242 351.753L180.105 348.448M195.242 351.753L171.579 375.416M198.547 366.889L186.715 378.721M198.547 366.889L168.274 360.28M186.715 378.721L171.579 375.416M186.715 378.721L180.105 348.448M171.579 375.416L168.274 360.28M168.274 360.28L180.105 348.448" stroke="#CCDAFE"/>
<path d="M188.978 358.017L190.534 365.139M188.978 358.017L181.855 356.461M188.978 358.017L177.843 369.152M190.534 365.139L184.966 370.707M190.534 365.139L176.288 362.029M184.966 370.707L177.843 369.152M184.966 370.707L181.855 356.461M177.843 369.152L176.288 362.029M176.288 362.029L181.855 356.461" stroke="#CCDAFE"/>
<path d="M178.758 342.403L201.505 345.49L191.883 365.446L188.985 389.168L167.229 379.765L168.257 360.262L178.758 342.403Z" fill="#E6EDFF" fill-opacity="0.2"/>
<path d="M201.505 345.49L201.956 345.707C202.025 345.563 202.021 345.394 201.946 345.253C201.87 345.112 201.731 345.016 201.572 344.994L201.505 345.49ZM178.758 342.403L178.825 341.907C178.625 341.88 178.429 341.975 178.327 342.149L178.758 342.403ZM191.883 365.446L191.433 365.228C191.409 365.278 191.393 365.331 191.387 365.385L191.883 365.446ZM188.985 389.168L188.787 389.627L189.4 389.892L189.481 389.228L188.985 389.168ZM168.257 360.262L167.826 360.009L167.764 360.114L167.758 360.236L168.257 360.262ZM167.229 379.765L166.73 379.739L166.712 380.086L167.031 380.224L167.229 379.765ZM201.572 344.994L178.825 341.907L178.69 342.898L201.438 345.985L201.572 344.994ZM192.334 365.663L201.956 345.707L201.055 345.272L191.433 365.228L192.334 365.663ZM189.481 389.228L192.379 365.506L191.387 365.385L188.489 389.107L189.481 389.228ZM178.327 342.149L167.826 360.009L168.688 360.516L179.189 342.656L178.327 342.149ZM167.758 360.236L166.73 379.739L167.729 379.792L168.756 360.288L167.758 360.236ZM167.031 380.224L188.787 389.627L189.184 388.709L167.428 379.306L167.031 380.224Z" fill="#CCDAFE"/>
<path d="M179.827 347.126L197.069 349.926L196.285 366.367L186.872 379.225L168.97 378.026L163.777 359.262L179.827 347.126Z" fill="#1DE4BC" fill-opacity="0.2"/>
<path d="M197.069 349.926L197.568 349.95C197.58 349.696 197.4 349.474 197.149 349.433L197.069 349.926ZM179.827 347.126L179.908 346.633L179.697 346.598L179.526 346.727L179.827 347.126ZM163.777 359.262L163.476 358.863C163.312 358.987 163.241 359.198 163.295 359.395L163.777 359.262ZM186.872 379.225L186.839 379.724C187.009 379.735 187.174 379.659 187.275 379.52L186.872 379.225ZM196.285 366.367L196.688 366.663L196.777 366.541L196.784 366.391L196.285 366.367ZM168.97 378.026L168.488 378.159L168.582 378.501L168.936 378.524L168.97 378.026ZM197.149 349.433L179.908 346.633L179.747 347.62L196.989 350.42L197.149 349.433ZM179.526 346.727L163.476 358.863L164.079 359.661L180.129 347.525L179.526 346.727ZM187.275 379.52L196.688 366.663L195.882 366.072L186.469 378.93L187.275 379.52ZM196.784 366.391L197.568 349.95L196.569 349.903L195.786 366.344L196.784 366.391ZM163.295 359.395L168.488 378.159L169.451 377.892L164.259 359.129L163.295 359.395ZM168.936 378.524L186.839 379.724L186.905 378.726L169.003 377.527L168.936 378.524Z" fill="#1DE4BC"/>
<path d="M177.957 340.855L201.241 345.754L206.307 369.205L188.255 385.827L165.54 381.455L176.675 362.233L177.957 340.855Z" fill="#61B8FF" fill-opacity="0.2"/>
<path d="M201.241 345.754L201.73 345.648C201.688 345.456 201.537 345.305 201.344 345.265L201.241 345.754ZM177.957 340.855L178.06 340.365C177.918 340.336 177.769 340.369 177.654 340.457C177.538 340.545 177.467 340.68 177.458 340.825L177.957 340.855ZM206.307 369.205L206.646 369.573C206.776 369.453 206.834 369.273 206.796 369.1L206.307 369.205ZM188.255 385.827L188.16 386.318L188.408 386.366L188.593 386.195L188.255 385.827ZM176.675 362.233L177.108 362.483L177.167 362.381L177.174 362.263L176.675 362.233ZM165.54 381.455L165.108 381.204L164.755 381.813L165.446 381.946L165.54 381.455ZM201.344 345.265L178.06 340.365L177.854 341.344L201.138 346.243L201.344 345.265ZM206.796 369.1L201.73 345.648L200.752 345.86L205.819 369.311L206.796 369.1ZM188.593 386.195L206.646 369.573L205.969 368.837L187.916 385.46L188.593 386.195ZM177.458 340.825L176.176 362.203L177.174 362.263L178.456 340.885L177.458 340.825ZM176.242 361.982L165.108 381.204L165.973 381.705L177.108 362.483L176.242 361.982ZM165.446 381.946L188.16 386.318L188.349 385.336L165.635 380.964L165.446 381.946Z" fill="#61B8FF"/>
</svg>
