<svg width="32" height="32" viewBox="0 0 32 32" fill="none" xmlns="http://www.w3.org/2000/svg">
<path d="M21.75 5.97496C20.2048 4.19142 18.4695 2.58189 16.575 1.17496C16.4059 1.05832 16.2054 0.99585 16 0.99585C15.7946 0.99585 15.5941 1.05832 15.425 1.17496C13.5305 2.58189 11.7952 4.19142 10.25 5.97496C6.8125 9.91246 5 14.075 5 18C5 20.9173 6.15893 23.7152 8.22183 25.7781C10.2847 27.841 13.0826 29 16 29C18.9174 29 21.7153 27.841 23.7782 25.7781C25.8411 23.7152 27 20.9173 27 18C27 14.075 25.1875 9.91246 21.75 5.97496ZM22.9 19.175C22.6575 20.6039 21.976 21.9219 20.95 22.9457C19.924 23.9694 18.6045 24.6481 17.175 24.8875H17.0125C16.7605 24.8887 16.5174 24.7948 16.3317 24.6245C16.146 24.4542 16.0314 24.2201 16.0109 23.969C15.9903 23.7178 16.0654 23.4682 16.2209 23.27C16.3765 23.0718 16.6012 22.9397 16.85 22.9C17.8689 22.7294 18.8091 22.2451 19.5396 21.5146C20.2701 20.7841 20.7544 19.8439 20.925 18.825C20.9476 18.6951 20.9957 18.571 21.0665 18.4598C21.1372 18.3486 21.2293 18.2525 21.3373 18.177C21.4453 18.1015 21.5672 18.0481 21.696 18.0198C21.8247 17.9916 21.9578 17.9891 22.0875 18.0125C22.2181 18.0335 22.3432 18.0806 22.4552 18.1509C22.5673 18.2212 22.6641 18.3133 22.7399 18.4217C22.8157 18.5301 22.8689 18.6527 22.8964 18.7821C22.9239 18.9115 22.9251 19.0451 22.9 19.175Z" fill="#225DB8"/>
</svg>
