<svg width="32" height="32" viewBox="0 0 32 32" fill="none" xmlns="http://www.w3.org/2000/svg">
<path d="M4.00033 28.0001C3.62255 28.0001 3.3061 27.8721 3.05099 27.6161C2.79499 27.361 2.66699 27.0445 2.66699 26.6667C2.66699 26.289 2.79499 25.9725 3.05099 25.7174C3.3061 25.4614 3.62255 25.3334 4.00033 25.3334H14.667V10.4334C14.0892 10.2334 13.5892 9.9223 13.167 9.50008C12.7448 9.07786 12.4337 8.57786 12.2337 8.00008H8.00033L11.6003 16.4001C11.7337 16.7112 11.8279 17.0556 11.883 17.4334C11.939 17.8112 11.9337 18.1112 11.867 18.3334C11.6003 19.2001 11.0501 19.917 10.2163 20.4841C9.38344 21.0503 8.42255 21.3334 7.33366 21.3334C6.24477 21.3334 5.28388 21.0503 4.45099 20.4841C3.61721 19.917 3.06699 19.2001 2.80033 18.3334C2.73366 18.1112 2.72788 17.8112 2.78299 17.4334C2.83899 17.0556 2.93366 16.7112 3.06699 16.4001L6.66699 8.00008H5.33366C4.95588 8.00008 4.63944 7.87253 4.38433 7.61741C4.12833 7.36141 4.00033 7.04453 4.00033 6.66675C4.00033 6.28897 4.12833 5.97208 4.38433 5.71608C4.63944 5.46097 4.95588 5.33341 5.33366 5.33341H12.2337C12.5003 4.55564 12.9781 3.91653 13.667 3.41608C14.3559 2.91653 15.1337 2.66675 16.0003 2.66675C16.867 2.66675 17.6448 2.91653 18.3337 3.41608C19.0225 3.91653 19.5003 4.55564 19.767 5.33341H26.667C27.0448 5.33341 27.3612 5.46097 27.6163 5.71608C27.8723 5.97208 28.0003 6.28897 28.0003 6.66675C28.0003 7.04453 27.8723 7.36141 27.6163 7.61741C27.3612 7.87253 27.0448 8.00008 26.667 8.00008H25.3337L28.9337 16.4001C29.067 16.7112 29.1617 17.0556 29.2177 17.4334C29.2728 17.8112 29.267 18.1112 29.2003 18.3334C28.9337 19.2001 28.3839 19.917 27.551 20.4841C26.7172 21.0503 25.7559 21.3334 24.667 21.3334C23.5781 21.3334 22.6172 21.0503 21.7843 20.4841C20.9505 19.917 20.4003 19.2001 20.1337 18.3334C20.067 18.1112 20.0617 17.8112 20.1177 17.4334C20.1728 17.0556 20.267 16.7112 20.4003 16.4001L24.0003 8.00008H19.767C19.567 8.57786 19.2559 9.07786 18.8337 9.50008C18.4114 9.9223 17.9114 10.2334 17.3337 10.4334V25.3334H28.0003C28.3781 25.3334 28.6945 25.4614 28.9497 25.7174C29.2057 25.9725 29.3337 26.289 29.3337 26.6667C29.3337 27.0445 29.2057 27.361 28.9497 27.6161C28.6945 27.8721 28.3781 28.0001 28.0003 28.0001H4.00033ZM22.167 17.3334H27.167L24.667 11.5334L22.167 17.3334ZM4.83366 17.3334H9.83366L7.33366 11.5334L4.83366 17.3334ZM16.0003 8.00008C16.3781 8.00008 16.695 7.87253 16.951 7.61741C17.2061 7.36141 17.3337 7.04453 17.3337 6.66675C17.3337 6.28897 17.2061 5.97208 16.951 5.71608C16.695 5.46097 16.3781 5.33341 16.0003 5.33341C15.6225 5.33341 15.3061 5.46097 15.051 5.71608C14.795 5.97208 14.667 6.28897 14.667 6.66675C14.667 7.04453 14.795 7.36141 15.051 7.61741C15.3061 7.87253 15.6225 8.00008 16.0003 8.00008Z" fill="#225DB8"/>
</svg>
