<svg width="32" height="32" viewBox="0 0 32 32" fill="none" xmlns="http://www.w3.org/2000/svg">
<path d="M15.9997 13.3334C21.301 13.3334 26.6663 11.5014 26.6663 8.00008C26.6663 4.49875 21.301 2.66675 15.9997 2.66675C10.6983 2.66675 5.33301 4.49875 5.33301 8.00008C5.33301 11.5014 10.6983 13.3334 15.9997 13.3334Z" fill="#225DB8"/>
<path d="M5.33301 13.3334C5.33301 16.8347 10.6983 18.6667 15.9997 18.6667C21.301 18.6667 26.6663 16.8347 26.6663 13.3334V10.6667C26.6663 14.1681 21.301 16.0001 15.9997 16.0001C10.6983 16.0001 5.33301 14.1681 5.33301 10.6667V13.3334Z" fill="#225DB8"/>
<path d="M5.33301 18.6667C5.33301 22.168 10.6983 24 15.9997 24C21.301 24 26.6663 22.168 26.6663 18.6667V16C26.6663 19.5013 21.301 21.3333 15.9997 21.3333C10.6983 21.3333 5.33301 19.5013 5.33301 16V18.6667Z" fill="#225DB8"/>
<path d="M5.33301 23.9999C5.33301 27.5013 10.6983 29.3333 15.9997 29.3333C21.301 29.3333 26.6663 27.5013 26.6663 23.9999V21.3333C26.6663 24.8346 21.301 26.6666 15.9997 26.6666C10.6983 26.6666 5.33301 24.8346 5.33301 21.3333V23.9999Z" fill="#225DB8"/>
</svg>
