<svg width="32" height="32" viewBox="0 0 32 32" fill="none" xmlns="http://www.w3.org/2000/svg">
<path d="M19.1413 3.46001C19.1695 3.42462 19.2045 3.39533 19.2443 3.37391C19.2841 3.35248 19.3278 3.33938 19.3728 3.33539C19.4179 3.33139 19.4632 3.3366 19.5062 3.35069C19.5491 3.36478 19.5888 3.38745 19.6227 3.41734L20.8507 4.5L16.9853 9.33334H19.5467L22.3547 5.82401L24.5573 7.76667C24.6225 7.82423 24.6625 7.90495 24.669 7.99162C24.6755 8.0783 24.6479 8.16408 24.592 8.23067L23.672 9.33334H26.264C26.5851 8.86331 26.7232 8.29212 26.6525 7.72731C26.5818 7.1625 26.307 6.64302 25.88 6.26667L20.9467 1.916C20.7087 1.70641 20.4305 1.54753 20.129 1.44906C19.8275 1.3506 19.5092 1.31462 19.1934 1.34332C18.8775 1.37202 18.5709 1.46479 18.2921 1.61599C18.0133 1.76718 17.7683 1.97361 17.572 2.22267L11.968 9.33334H14.5147L19.1413 3.46001ZM7 8.66667C6.73478 8.66667 6.48043 8.77203 6.29289 8.95957C6.10536 9.1471 6 9.40146 6 9.66667C6 9.93189 6.10536 10.1862 6.29289 10.3738C6.48043 10.5613 6.73478 10.6667 7 10.6667H24.3333C25.4826 10.6667 26.5848 11.1232 27.3975 11.9359C28.2101 12.7485 28.6667 13.8507 28.6667 15V23.6667C28.6667 24.8159 28.2101 25.9181 27.3975 26.7308C26.5848 27.5435 25.4826 28 24.3333 28H8.33333C7.18406 28 6.08186 27.5435 5.2692 26.7308C4.45655 25.9181 4 24.8159 4 23.6667V9.66667C4 8.87102 4.31607 8.10796 4.87868 7.54535C5.44129 6.98274 6.20435 6.66667 7 6.66667H12.76L11.1707 8.66667H7ZM20.6667 19.6667C20.6667 20.2187 21.1147 20.6667 21.6667 20.6667H24.3333C24.5985 20.6667 24.8529 20.5613 25.0404 20.3738C25.228 20.1862 25.3333 19.9319 25.3333 19.6667C25.3333 19.4015 25.228 19.1471 25.0404 18.9596C24.8529 18.772 24.5985 18.6667 24.3333 18.6667H21.6667C21.4014 18.6667 21.1471 18.772 20.9596 18.9596C20.772 19.1471 20.6667 19.4015 20.6667 19.6667Z" fill="#225DB8"/>
</svg>
